<svg width="20" height="20" viewBox="0 0 20 20" fill="none" xmlns="http://www.w3.org/2000/svg">
<path d="M14.5 7.296V7C14.5 4.515 12.485 2.5 10 2.5C7.515 2.5 5.5 4.515 5.5 7L5.5 7.296C5.5 8.719 4.743 10.042 3.508 10.75C2.867 11.118 2.5 11.544 2.5 12C2.5 13.381 5.858 14.5 10 14.5C14.142 14.5 17.5 13.381 17.5 12C17.5 11.544 17.133 11.118 16.492 10.75C15.257 10.043 14.5 8.719 14.5 7.296Z" stroke="#FFC466" stroke-miterlimit="10" stroke-linecap="round" stroke-linejoin="round"/>
<path d="M12.292 16C11.906 16.883 11.025 17.5 10 17.5C8.97501 17.5 8.09501 16.883 7.70801 16.001" stroke="#FFC466" stroke-miterlimit="10" stroke-linecap="round" stroke-linejoin="round"/>
</svg>
