<svg width="20" height="20" viewBox="0 0 20 20" fill="none" xmlns="http://www.w3.org/2000/svg">
<path d="M18 5.05C17.4 5.3 16.8 5.5 16.1 5.55C16.8 5.15 17.3 4.5 17.55 3.75C16.9 4.15 16.2 4.4 15.45 4.55C14.85 3.9 14 3.5 13.1 3.5C11.3 3.5 9.80001 4.95 9.80001 6.8C9.80001 7.05 9.85001 7.3 9.90001 7.55C7.15001 7.4 4.75001 6.1 3.10001 4.1C2.80001 4.6 2.65001 5.15 2.65001 5.75C2.65001 6.9 3.25001 7.9 4.10001 8.5C3.55001 8.5 3.05001 8.35 2.60001 8.1V8.15C2.60001 9.75 3.75001 11.05 5.25001 11.35C4.95001 11.4 4.70001 11.45 4.40001 11.45C4.20001 11.45 4.00001 11.45 3.80001 11.4C4.20001 12.7 5.45001 13.65 6.85001 13.7C5.75001 14.6 4.30001 15.1 2.75001 15.1C2.50001 15.1 2.20001 15.1 1.95001 15.05C3.45001 15.95 5.20001 16.5 7.05001 16.5C13.1 16.5 16.4 11.5 16.4 7.15C16.4 7 16.4 6.85 16.4 6.75C17 6.25 17.55 5.7 18 5.05Z" fill="#323842"/>
</svg>
