<svg width="20" height="20" viewBox="0 0 20 20" fill="none" xmlns="http://www.w3.org/2000/svg">
<path d="M18 9.99997C17.9998 8.47118 17.5615 6.97447 16.737 5.68703C15.9126 4.3996 14.7365 3.37534 13.3481 2.73553C11.9596 2.09572 10.4169 1.86714 8.90257 2.07686C7.38823 2.28657 5.9657 2.9258 4.80337 3.91887C3.64104 4.91194 2.7876 6.21726 2.34407 7.68029C1.90054 9.14333 1.88551 10.7028 2.30075 12.1741C2.71599 13.6454 3.54411 14.967 4.68708 15.9823C5.83004 16.9976 7.23999 17.6641 8.75 17.903V12.3125H6.719L6.719 9.99997L8.75 9.99997V8.23747C8.75 6.23247 9.9445 5.12497 11.7715 5.12497C12.3715 5.13329 12.9701 5.18543 13.5625 5.28097L13.5625 7.24997H12.5535C12.3816 7.22713 12.2067 7.24328 12.0418 7.29722C11.877 7.35115 11.7264 7.44149 11.6012 7.56154C11.476 7.6816 11.3794 7.82828 11.3186 7.99073C11.2578 8.15317 11.2344 8.32722 11.25 8.49997V9.99997H13.469L13.114 12.3125L11.25 12.3125L11.25 17.903C13.1319 17.6053 14.8458 16.6457 16.0832 15.1969C17.3206 13.7481 18.0003 11.9053 18 9.99997Z" fill="#323842"/>
</svg>
