<svg width="36" height="35" viewBox="0 0 36 35" fill="none" xmlns="http://www.w3.org/2000/svg">
<g id="Image 9" clip-path="url(#clip0_1_4173)">
<g id="Group">
<g id="Group_2">
<g id="Group_3">
<g id="Group_4">
<g id="Group_5">
<path id="Vector" d="M19.0291 0.266783C18.8541 -0.158607 18.4481 -0.432587 18.0001 -0.432587C17.5521 -0.432587 17.1461 -0.158607 16.9711 0.266783L13.8841 7.68587C13.6461 8.26267 13.5201 8.87552 13.5201 9.50279V15.0545L3.44008 21.1109V19.7554C3.44008 18.7965 2.69108 18.025 1.76008 18.025C0.829078 18.025 0.0800781 18.7965 0.0800781 19.7554V23.793V26.1002V27.8306C0.0800781 28.7895 0.829078 29.561 1.76008 29.561C2.69108 29.561 3.44008 28.7895 3.44008 27.8306V27.2538H13.5201V29.6115L9.42508 33.3102C9.18008 33.5265 9.04008 33.8438 9.04008 34.1754V35.329C9.04008 35.9635 9.54408 36.4826 10.1601 36.4826H16.8801V31.8682C16.8801 31.2337 17.3841 30.7146 18.0001 30.7146C18.6161 30.7146 19.1201 31.2337 19.1201 31.8682V36.4826H25.8401C26.4561 36.4826 26.9601 35.9635 26.9601 35.329V34.1754C26.9601 33.8438 26.8201 33.5265 26.5751 33.3102L22.4801 29.6115V27.2538H32.5601V27.8306C32.5601 28.7895 33.3091 29.561 34.2401 29.561C35.1711 29.561 35.9201 28.7895 35.9201 27.8306V26.1002V23.793V19.7554C35.9201 18.7965 35.1711 18.025 34.2401 18.025C33.3091 18.025 32.5601 18.7965 32.5601 19.7554V21.1109L22.4801 15.0545V9.50279C22.4801 8.87552 22.3541 8.26267 22.1161 7.68587L19.0291 0.266783Z" fill="white"/>
</g>
</g>
</g>
</g>
</g>
</g>
<defs>
<clipPath id="clip0_1_4173">
<rect width="36" height="35" fill="white"/>
</clipPath>
</defs>
</svg>
